PathFileType	4	(X/Y/Z)	D:\TRACE\spot_10-12-23\spot_arm_body_motion_1_9-platform.trc
DataRate	CameraRate	NumFrames	NumMarkers	Units	OrigDataRate	OrigDataStartFrame	OrigNumFrames
100.00	100.00	      48	5	mm	100.00	2626	      7000
Frame#	Time	Left_Front			Right_Front			Left_Aft			Right_Aft			Post			
		X1	Y1	Z1	X2	Y2	Z2	X3	Y3	Z3	X4	Y4	Z4	X5	Y5	Z5	

2626	26.250	-825.73291	-9.09345	-656.91815	741.74866	-11.42973	-632.34290	-756.74109	26.33376	481.22247	649.87848	26.87183	583.49542	-37.14156	708.34003	-989.59509	
2627	26.260	-826.26453	-9.34319	-656.82904	741.07892	-11.62079	-632.39008	-757.46881	26.46396	481.22403	649.35986	26.97969	583.46735	-37.76312	708.00745	-990.18610	
2628	26.270	-826.73657	-9.67408	-656.78540	740.49573	-11.79931	-632.37122	-758.23004	26.55912	481.23157	648.74408	27.02140	583.41351	-38.49877	707.71960	-990.73212	
2629	26.280	-827.11176	-9.98789	-656.77838	739.96228	-11.93585	-632.39270	-758.75537	26.67598	481.19797	648.13550	27.14082	583.29846	-38.93269	707.53290	-990.99872	
2630	26.290	-827.54022	-10.18845	-656.86670	739.50671	-11.96798	-632.37714	-759.10315	26.78270	481.08160	647.61554	27.21110	583.25378	-39.37636	707.40289	-991.27002	
2631	26.300	-828.08514	-10.18788	-656.99677	739.12762	-12.00618	-632.33710	-759.50342	26.85034	480.95862	647.14337	27.38443	583.22076	-39.91533	707.28717	-991.57123	
2632	26.310	-828.82635	-10.12924	-657.12793	738.67920	-12.12217	-632.39111	-760.10077	26.88758	480.89954	646.65411	27.43075	583.09955	-40.52213	707.14783	-991.82556	
2633	26.320	-829.36407	-10.22765	-657.06476	738.10718	-12.29698	-632.46417	-760.73834	27.04572	480.88388	646.12079	27.55832	583.10889	-41.17413	706.94257	-991.97083	
2634	26.330	-829.92517	-10.24677	-656.99725	737.58838	-12.44913	-632.56189	-761.18640	27.06896	480.91064	645.74182	27.69930	583.05975	-41.78072	706.67365	-991.99512	
2635	26.340	-830.31848	-10.46655	-657.04913	737.12695	-12.63610	-632.62946	-761.48572	27.15022	480.88855	645.25366	27.75544	583.00189	-42.05025	706.50873	-991.92004	
2636	26.350	-830.54352	-10.56646	-657.10046	736.67688	-12.80385	-632.69031	-761.77075	27.19808	480.82339	644.86951	27.84918	582.92938	-42.18599	706.38379	-991.86761	
2637	26.360	-830.83173	-10.81031	-656.91180	736.30603	-12.90924	-632.72681	-762.19885	27.26080	480.70520	644.61499	27.92929	582.87262	-42.47493	706.17883	-991.70190	
2638	26.370	-831.13507	-10.96512	-656.97644	735.98822	-13.01620	-632.72778	-762.61127	27.36996	480.66193	644.26868	28.16310	583.03400	-42.87820	705.93054	-991.55084	
2639	26.380	-831.38733	-11.08693	-657.00928	735.58990	-13.22206	-632.72748	-762.95648	27.49173	480.64508	643.96747	28.28067	583.01416	-43.26091	705.75568	-991.57355	
2640	26.390	-831.70740	-11.17090	-656.97772	735.40979	-13.21984	-632.75397	-763.25195	27.52774	480.62161	643.74347	28.36472	582.96460	-43.52735	705.78284	-991.70245	
2641	26.400	-832.10638	-11.22582	-657.06952	735.21442	-13.24807	-632.78687	-763.50256	27.63772	480.60425	643.54431	28.43697	582.92755	-43.77589	705.66748	-991.83093	
2642	26.410	-832.16071	-11.44293	-657.61688	735.04224	-13.30910	-632.79681	-763.67413	27.71128	480.55966	643.28357	28.54477	582.89319	-43.85760	705.34631	-991.90021	
2643	26.420	-832.56940	-11.18996	-657.21600	734.78546	-13.38719	-632.81128	-763.84119	27.81555	480.56693	643.03333	28.58821	582.87531	-44.29026	705.20160	-992.28320	
2644	26.430	-832.72314	-11.23730	-657.10559	734.59320	-13.46864	-632.81372	-763.90448	27.89275	480.52484	642.86963	28.65508	582.83160	-44.57812	704.99677	-992.75964	
2645	26.440	-832.79846	-11.30653	-657.15082	734.46063	-13.57628	-632.80853	-763.98004	27.93364	480.50284	642.71558	28.67788	582.79663	-44.64285	704.77899	-993.14203	
2646	26.450	-832.93518	-11.42790	-657.20337	734.42163	-13.65151	-632.82977	-764.04150	27.97936	480.45206	642.71191	28.76638	582.75543	-44.59026	704.68359	-993.36053	
2647	26.460	-832.99347	-11.49275	-657.26013	734.38617	-13.77612	-632.87970	-764.06641	28.01613	480.45926	642.64087	28.81472	582.71466	-44.49669	704.64868	-993.52344	
2648	26.470	-833.14337	-11.55768	-657.34851	734.33472	-13.94573	-632.91223	-764.09509	28.07741	480.41043	642.59521	28.88309	582.67896	-44.48833	704.51312	-993.63550	
2649	26.480	-833.17023	-11.72029	-657.36755	734.23907	-14.06599	-632.93384	-764.14142	28.12278	480.42163	642.55878	28.92500	582.69073	-44.52733	704.40314	-993.79285	
2650	26.490	-833.22205	-11.80355	-657.40765	734.16022	-14.18106	-632.93958	-764.19171	28.16966	480.40372	642.54694	28.98535	582.68799	-44.60073	704.24207	-993.90002	
2651	26.500	-833.13086	-11.58687	-657.43719	734.16455	-14.27345	-632.96320	-764.22815	28.19776	480.40704	642.48346	29.10899	582.63989	-44.67224	704.05621	-993.93091	
2652	26.510	-833.10681	-11.57272	-657.39630	734.14105	-14.30641	-633.00165	-764.18304	28.23661	480.40482	642.52155	29.01440	582.41840	-44.69403	703.92017	-993.89404	
2653	26.520	-833.26062	-11.98620	-657.49451	734.24493	-14.72386	-633.08417	-764.14294	28.31712	480.39227	642.54926	29.12110	582.35669	-44.66200	703.85602	-993.81519	
2654	26.530	-833.33704	-12.28688	-657.58514	734.22632	-14.83191	-633.11292	-764.17352	28.31662	480.38458	642.51031	29.19022	582.39233	-44.67898	703.71252	-993.77930	
2655	26.540	-833.32068	-12.17363	-657.56244	734.15594	-14.80343	-633.15564	-764.17981	28.30392	480.38306	642.47253	29.14043	582.33160	-44.65602	703.53265	-993.80365	
2656	26.550	-833.26672	-12.00734	-657.52490	734.03949	-14.73894	-633.18011	-764.20776	28.31079	480.39609	642.47260	29.19404	582.60052	-44.60801	703.62085	-993.76678	
2657	26.560	-833.21222	-11.89664	-657.47437	734.04181	-14.80352	-633.18353	-764.18866	28.33691	480.41394	642.55005	29.12091	582.40039	-44.63994	703.74756	-993.71185	
2658	26.570	-833.16101	-11.95353	-657.45825	734.16882	-14.83129	-633.19122	-764.11877	28.31477	480.39716	642.60278	29.19744	582.40240	-44.67042	703.81073	-993.72937	
2659	26.580	-833.05096	-12.07458	-657.57343	734.19177	-14.81548	-633.30933	-763.97711	28.35156	480.36639	642.75818	29.22340	582.39172	-44.55580	703.75903	-993.85126	
2660	26.590	-832.63525	-12.22482	-657.43170	734.39252	-14.87033	-633.32202	-763.84888	28.36465	480.34595	643.02057	29.18844	582.36578	-44.20512	703.55524	-993.92834	
2661	26.600	-832.23901	-12.22392	-657.23193	734.63104	-15.07433	-633.28674	-763.85864	28.25380	480.47333	643.32587	29.17424	582.38239	-43.82636	703.46436	-993.95764	
2662	26.610	-831.65594	-12.34808	-657.26086	735.45068	-14.76250	-632.98053	-763.36340	28.37700	480.38428	643.62878	29.29721	582.57208	-43.53359	703.39233	-993.99854	
2663	26.620	-831.39752	-12.63235	-657.30640	735.12891	-15.26636	-633.31470	-763.00739	28.49588	480.43219	643.96460	29.41632	582.53833	-43.36655	703.37640	-993.99908	
2664	26.630	-831.18231	-12.68299	-657.33313	736.00690	-14.73700	-632.97034	-762.66309	28.60128	480.42133	644.21643	29.53576	582.51508	-43.22247	703.32843	-994.10083	
2665	26.640	-830.96722	-12.66804	-657.40070	736.33606	-14.84830	-633.00446	-762.35919	28.55261	480.36417	644.37823	29.46078	582.52112	-42.96386	703.21338	-994.30902	
2666	26.650	-830.76306	-12.60276	-657.42065	736.61310	-14.97290	-633.02124	-762.03082	28.58217	480.30835	644.59064	29.49427	582.53699	-42.53037	703.04376	-994.47644	
2667	26.660	-830.52655	-12.60376	-657.39160	736.91907	-14.91666	-633.05231	-761.75018	28.60602	480.32803	644.88739	29.63023	582.57001	-42.02088	702.99432	-994.60211	
2668	26.670	-830.15375	-12.59047	-657.38977	737.24176	-14.76133	-633.03241	-761.50830	28.63240	480.31903	645.32465	29.79809	582.58832	-41.62108	703.03009	-994.63629	
2669	26.680	-829.74182	-12.79895	-657.84485	737.57642	-14.78304	-633.04706	-761.23895	28.68689	480.28436	645.67596	29.92823	582.55054	-41.35796	703.03656	-994.66211	
2670	26.690	-829.72394	-12.56483	-657.64075	737.98798	-14.91414	-633.02679	-760.85223	28.74494	480.23743	646.03210	29.83124	582.52600	-36.13417	707.39777	-1011.71783	
2671	26.700	-829.26788	-12.60963	-657.61041	738.39148	-14.96761	-632.97040	-760.36334	28.72498	480.18890	646.48523	29.73675	582.56891	-34.14487	708.87799	-1017.51013	
2672	26.710	-828.64404	-12.75135	-657.42328	738.73248	-15.08644	-632.87787	-759.97534	28.68098	480.16418	646.92712	29.73728	582.60822	-40.42907	703.02380	-994.62354	
2673	26.720	-827.99701	-12.75529	-657.53333	739.08978	-15.03485	-632.80865	-759.52924	28.64469	480.11902	647.27423	29.60362	582.50568	-39.97992	703.06677	-994.56128	
